<?xml version="1.0" encoding="utf-8"?>
<!-- Generator: Adobe Illustrator 18.0.0, SVG Export Plug-In . SVG Version: 6.00 Build 0)  -->
<!DOCTYPE svg PUBLIC "-//W3C//DTD SVG 1.1//EN" "http://www.w3.org/Graphics/SVG/1.1/DTD/svg11.dtd">
<svg version="1.1"
	 id="svg2" xmlns:cc="http://creativecommons.org/ns#" xmlns:dc="http://purl.org/dc/elements/1.1/" xmlns:inkscape="http://www.inkscape.org/namespaces/inkscape" xmlns:rdf="http://www.w3.org/1999/02/22-rdf-syntax-ns#" xmlns:sodipodi="http://sodipodi.sourceforge.net/DTD/sodipodi-0.dtd" xmlns:svg="http://www.w3.org/2000/svg"
	 xmlns="http://www.w3.org/2000/svg" xmlns:xlink="http://www.w3.org/1999/xlink" x="0px" y="0px" viewBox="0 0 500 500"
	 enable-background="new 0 0 500 500" xml:space="preserve">
<g id="layer1" transform="translate(0,-552.36218)">
	<path id="rect2995" fill="#FFFFFF" d="M139.9,658.1c-19.2,0-34.7,15.5-34.7,34.7s15.5,34.8,34.7,34.8s34.7-15.6,34.7-34.8
		S159.1,658.1,139.9,658.1z M321.8,748.6c-3.9,0-7.7,0.1-12.7,0.4c-10.9,0.6-36.4,12.4-45.8,31.2c0-8.2,0.1-15.7,0.1-26.9
		c-11.2,0-25.8,0.1-56.4,0.1c0,34.3-0.4,155.6-0.4,190.9h59.2c0-21,0.3-73.6,0.3-106.7c0-11.1,6.7-36.8,34.3-36.8
		c25.1,0,32.1,21.1,32.1,36.8c0,34.4-0.3,83.1-0.3,106.7h59.5c0-23,0.2-85.6-0.5-125.1c-0.9-48-30-68.4-56.2-70
		C329.7,748.8,325.7,748.6,321.8,748.6z M110.2,754.1v190.1h59.3V754.1H110.2z"/>
</g>
</svg>
