<?xml version="1.0" encoding="UTF-8"?>
<svg width="74px" height="50px" viewBox="0 0 74 50" version="1.1" xmlns="http://www.w3.org/2000/svg" xmlns:xlink="http://www.w3.org/1999/xlink">
    <!-- Generator: Sketch 46.2 (44496) - http://www.bohemiancoding.com/sketch -->
    <title>Artboard</title>
    <desc>Created with Sketch.</desc>
    <defs>
        <polygon id="path-1" points="0.000675675676 0.87972973 25.920609 0.87972973 25.920609 26.2009459 0.000675675676 26.2009459 0.000675675676 0.87972973"></polygon>
    </defs>
    <g id="Page-1" stroke="none" stroke-width="1" fill="none" fill-rule="evenodd">
        <g id="Artboard">
            <g id="Icon---Web-Design" transform="translate(13.000000, 0.000000)">
                <path d="M29.7118919,27.6141892 C29.47,27.6141892 29.2281081,27.5222973 29.042973,27.3385135 C28.6727027,26.9682432 28.6727027,26.3709459 29.0416216,26.002027 L42.6145946,12.397973 C43.8551351,11.1533784 43.8551351,9.12905405 42.6145946,7.88445946 L41.2551351,6.525 C40.0537838,5.32094595 37.9605405,5.32094595 36.7605405,6.525 L21.7916216,21.5236486 C21.4213514,21.8952703 20.8227027,21.8939189 20.4537838,21.525 C20.0835135,21.1560811 20.0835135,20.5560811 20.4510811,20.1871622 L35.4213514,5.18716216 C36.3794595,4.22635135 37.6524324,3.69932432 39.0078378,3.69932432 C40.3632432,3.69932432 41.6362162,4.22635135 42.5943243,5.18716216 L43.9537838,6.54932432 C45.9294595,8.52905405 45.9294595,11.7533784 43.9537838,13.7344595 L30.3808108,27.3371622 C30.197027,27.5222973 29.9537838,27.6141892 29.7118919,27.6141892" id="Fill-1" fill="#4A4A4A"></path>
                <path d="M27.6195946,29.7151351 C27.3736486,29.7151351 27.1277027,29.6097297 26.947973,29.4408108 C26.7777027,29.2610811 26.6736486,29.0137838 26.6736486,28.7691892 C26.6736486,28.5137838 26.7777027,28.2678378 26.947973,28.0975676 C27.297973,27.7462162 27.9412162,27.7462162 28.2912162,28.0975676 C28.4614865,28.2678378 28.5655405,28.5137838 28.5655405,28.7691892 C28.5655405,29.0137838 28.4614865,29.2610811 28.2912162,29.4313514 C28.1114865,29.6097297 27.8655405,29.7151351 27.6195946,29.7151351" id="Fill-3" fill="#4A4A4A"></path>
                <path d="M3.40810811,46.772027 C3.16081081,46.772027 2.91891892,46.6760811 2.73918919,46.4963514 C2.48783784,46.2436486 2.39864865,45.8733784 2.50810811,45.5355405 L5.95135135,34.8733784 C5.9972973,34.7314865 6.07567568,34.6017568 6.18108108,34.4963514 L20.4513514,20.1868919 C20.8216216,19.817973 21.4202703,19.817973 21.7891892,20.1855405 C22.1594595,20.5544595 22.1594595,21.1544595 21.7918919,21.5233784 L7.68108108,35.672027 L4.87702703,44.3544595 L13.5351351,41.545 L24.8581081,30.195 C25.227027,29.8233784 25.8256757,29.8260811 26.1959459,30.1922973 C26.5662162,30.5612162 26.5662162,31.1612162 26.1972973,31.5314865 L14.7135135,43.0422973 C14.6067568,43.1490541 14.477027,43.2287838 14.3351351,43.2747297 L3.7,46.7260811 C3.60405405,46.7571622 3.50540541,46.772027 3.40810811,46.772027" id="Fill-5" fill="#4A4A4A"></path>
                <path d="M14.0433784,43.3210811 C13.8001351,43.3210811 13.5582432,43.2291892 13.3731081,43.0427027 L6.18121622,35.8332432 C5.8122973,35.4643243 5.8122973,34.862973 6.18391892,34.4954054 C6.55418919,34.1264865 7.15148649,34.1264865 7.52040541,34.4967568 L14.7136486,41.7075676 C15.0825676,42.0764865 15.0825676,42.6751351 14.7109459,43.0440541 C14.5258108,43.2291892 14.2852703,43.3210811 14.0433784,43.3210811" id="Fill-7" fill="#4A4A4A"></path>
                <path d="M40.0014865,17.3009459 C39.7595946,17.3009459 39.5163514,17.2090541 39.3312162,17.0225676 L32.1393243,9.81445946 C31.7704054,9.44554054 31.7704054,8.84554054 32.142027,8.47662162 C32.5109459,8.1077027 33.1095946,8.10635135 33.4785135,8.47797297 L40.6717568,15.6874324 C41.0406757,16.0563514 41.0406757,16.655 40.6690541,17.0252703 C40.4839189,17.2090541 40.2433784,17.3009459 40.0014865,17.3009459" id="Fill-9" fill="#4A4A4A"></path>
                <path d="M10.38,39.6483784 C10.1367568,39.6483784 9.89486486,39.5564865 9.70972973,39.3713514 C9.34081081,39.0010811 9.34081081,38.4010811 9.71243243,38.0335135 L35.7381081,12.0808108 C36.1083784,11.7118919 36.7056757,11.7118919 37.0745946,12.0835135 C37.4435135,12.4524324 37.4435135,13.0510811 37.0732432,13.42 L11.0475676,39.3727027 C10.8624324,39.5564865 10.6218919,39.6483784 10.38,39.6483784" id="Fill-11" fill="#4A4A4A"></path>
                <g id="Group-15" transform="translate(0.000000, 0.471081)">
                    <mask id="mask-2" fill="white">
                        <use xlink:href="#path-1"></use>
                    </mask>
                    <g id="Clip-14"></g>
                    <path d="M15.1466216,26.2009459 C14.9047297,26.2009459 14.6641892,26.1090541 14.4790541,25.9239189 L0.279054054,11.7631081 C0.0993243243,11.5874324 0.000675675676,11.3455405 0.000675675676,11.0941892 C0.000675675676,10.8428378 0.0993243243,10.6022973 0.279054054,10.4239189 L9.57364865,1.155 C9.94256757,0.787432432 10.5398649,0.787432432 10.9087838,1.155 L25.6425676,15.8482432 C26.0128378,16.2158108 26.0128378,16.8158108 25.6452703,17.1847297 C25.2763514,17.5577027 24.6777027,17.5577027 24.3060811,17.1874324 L10.2412162,3.16040541 L2.28581081,11.0941892 L15.8141892,24.5847297 C16.1858108,24.9536486 16.1858108,25.5536486 15.8168919,25.9225676 C15.6317568,26.1090541 15.3898649,26.2009459 15.1466216,26.2009459" id="Fill-13" fill="#4A4A4A" mask="url(#mask-2)"></path>
                </g>
                <path d="M37.6577027,49.1197297 C37.4158108,49.1197297 37.1752703,49.0278378 36.9901351,48.8440541 L22.2495946,34.1454054 C21.8793243,33.7764865 21.8793243,33.1764865 22.2482432,32.8075676 C22.6171622,32.4359459 23.2158108,32.4359459 23.5847297,32.8062162 L37.6577027,46.8386486 L45.6144595,38.9048649 L31.6739189,25.0035135 C31.3036486,24.6359459 31.3036486,24.0359459 31.6712162,23.667027 C32.0414865,23.2967568 32.6401351,23.2981081 33.0104054,23.6643243 L47.6225676,38.2345946 C47.7995946,38.412973 47.8995946,38.6535135 47.8995946,38.9048649 C47.8995946,39.1562162 47.7995946,39.3981081 47.6225676,39.5751351 L38.3266216,48.8440541 C38.1414865,49.0278378 37.8995946,49.1197297 37.6577027,49.1197297" id="Fill-16" fill="#4A4A4A"></path>
                <path d="M13.2845946,13.692973 C13.0413514,13.692973 12.7994595,13.6010811 12.6143243,13.4145946 C12.2454054,13.0456757 12.2454054,12.4456757 12.6156757,12.0767568 L16.3345946,8.37 C16.7048649,7.99972973 17.3035135,7.99972973 17.6724324,8.37135135 C18.0413514,8.74027027 18.0413514,9.33891892 17.6710811,9.70918919 L13.9521622,13.4172973 C13.767027,13.6010811 13.5264865,13.692973 13.2845946,13.692973" id="Fill-18" fill="#4A4A4A"></path>
                <path d="M36.4739189,36.8163514 C36.2306757,36.8163514 35.9887838,36.7244595 35.8036486,36.537973 C35.4347297,36.1690541 35.4360811,35.5690541 35.805,35.2014865 L39.5239189,31.4947297 C39.8941892,31.1244595 40.4928378,31.1244595 40.8617568,31.4947297 C41.2306757,31.8663514 41.2293243,32.4636486 40.8604054,32.8339189 L37.1414865,36.5406757 C36.9563514,36.7244595 36.7158108,36.8163514 36.4739189,36.8163514" id="Fill-20" fill="#4A4A4A"></path>
            </g>
        </g>
    </g>
</svg>